<svg width="61" height="62" viewBox="0 0 61 62" fill="none" xmlns="http://www.w3.org/2000/svg">
<g clip-path="url(#clip0_0_140)">
<path opacity="0.5" d="M30.428 9.51766V26.763L45.3921 18.1225V0.876953L30.428 9.51766Z" fill="#13A049"/>
<path opacity="0.5" d="M30.428 9.51766L15.4641 0.876953V18.1584L30.428 26.7991V9.51766Z" fill="#A2CC39"/>
<path opacity="0.9" d="M45.3922 0.876953L30.428 9.51766L15.4641 0.876953L0.5 9.51766L30.428 26.7991L60.3383 9.51766L45.3922 0.876953Z" fill="url(#paint0_linear_0_140)"/>
<path d="M30.428 26.799L0.5 9.51764V26.799L15.4641 35.4397V52.7033L30.428 61.344L45.3922 52.7033V35.4397L60.3383 26.799V9.51764L30.428 26.799Z" fill="url(#paint1_linear_0_140)"/>
<path d="M30.428 26.799V61.344L45.3921 52.7033V35.4397L60.3382 26.799V9.51764L30.428 26.799Z" fill="url(#paint2_linear_0_140)"/>
<path opacity="0.05" d="M30.428 44.0627V61.3441L45.3921 52.7034L30.428 44.0627Z" fill="#231F20"/>
<path opacity="0.1" d="M30.428 61.3799V44.0985L15.4641 52.7392L30.428 61.3799Z" fill="#231F20"/>
<path opacity="0.05" d="M15.4641 18.1584L0.5 26.7991L15.4641 35.4398L30.428 26.7991L15.4641 18.1584Z" fill="#231F20"/>
<path opacity="0.05" d="M45.3921 18.1584L30.428 26.7991L45.3921 35.4398L60.3382 26.7991L45.3921 18.1584Z" fill="#231F20"/>
</g>
<defs>
<linearGradient id="paint0_linear_0_140" x1="60.3455" y1="13.8357" x2="0.5" y2="13.8357" gradientUnits="userSpaceOnUse">
<stop stop-color="#37BDA6"/>
<stop offset="1" stop-color="#8AD3B8"/>
</linearGradient>
<linearGradient id="paint1_linear_0_140" x1="60.3455" y1="35.4298" x2="0.5" y2="35.4298" gradientUnits="userSpaceOnUse">
<stop offset="0.5" stop-color="#4BB6AD"/>
<stop offset="1" stop-color="#78BBC1"/>
</linearGradient>
<linearGradient id="paint2_linear_0_140" x1="30.4226" y1="35.4298" x2="60.3451" y2="35.4298" gradientUnits="userSpaceOnUse">
<stop stop-color="#4379A7"/>
<stop offset="1" stop-color="#7CC9B8"/>
</linearGradient>
<clipPath id="clip0_0_140">
<rect width="60" height="60.7031" fill="white" transform="translate(0.5 0.876953)"/>
</clipPath>
</defs>
</svg>
