<svg width="61" height="61" viewBox="0 0 61 61" fill="none" xmlns="http://www.w3.org/2000/svg">
<g clip-path="url(#clip0_0_137)">
<path d="M13.64 0.228516H47.36C54.6172 0.228516 60.5 6.11133 60.5 13.3685V47.0885C60.5 54.3457 54.6172 60.2285 47.36 60.2285H13.64C6.38281 60.2285 0.5 54.3457 0.5 47.0885V13.3685C0.5 6.11133 6.38281 0.228516 13.64 0.228516Z" fill="url(#paint0_linear_0_137)"/>
<path d="M19.7286 43.7777L19.7343 43.7796L17.6828 47.3327C16.9339 48.6298 15.2755 49.0741 13.9785 48.3253C12.6817 47.5765 12.2371 45.9181 12.9859 44.621L14.4971 42.0035L14.6422 41.7523C14.9012 41.3801 15.5403 40.7374 16.8189 40.8584C16.8189 40.8584 19.8275 41.1849 20.0453 42.7486C20.0453 42.7486 20.0748 43.2631 19.7286 43.7777ZM48.8247 34.7027H42.4276C41.9919 34.6734 41.8018 34.5178 41.7268 34.4273L41.7222 34.4191L34.8744 22.5584L34.8655 22.5642L34.4549 21.9755C33.7818 20.9461 32.713 23.5786 32.713 23.5786C31.4368 26.512 32.8942 29.847 33.4021 30.855L42.9135 47.3292C43.6621 48.626 45.3205 49.0706 46.6178 48.3216C47.9146 47.5727 48.3592 45.9143 47.6101 44.6173L45.2319 40.4979C45.1857 40.3981 45.1056 40.1271 45.5933 40.1259H48.8247C50.3223 40.1259 51.5364 38.9119 51.5364 37.4142C51.5364 35.9166 50.3223 34.7025 48.8247 34.7025V34.7027ZM36.3995 38.389C36.3995 38.389 36.741 40.1259 35.4198 40.1259H11.7716C10.2739 40.1259 9.05988 38.9119 9.05988 37.4142C9.05988 35.9166 10.2739 34.7025 11.7716 34.7025H17.8513C18.8328 34.6458 19.0653 34.0791 19.0653 34.0791L19.071 34.0819L27.0069 20.3363L27.0046 20.3358C27.1492 20.0702 27.0287 19.8192 27.0079 19.7796L24.3868 15.24C23.638 13.9432 24.0824 12.2845 25.3794 11.5359C26.6764 10.7871 28.3349 11.2313 29.0837 12.5283L30.2992 14.6337L31.5125 12.532C32.2614 11.2352 33.9198 10.7906 35.2168 11.5397C36.5139 12.2885 36.9582 13.9467 36.2094 15.2438L25.1661 34.3711C25.1179 34.4876 25.1031 34.6704 25.4624 34.7025H32.0633L32.0647 34.767C32.0647 34.767 35.8799 34.8263 36.3995 38.389Z" fill="white"/>
</g>
<defs>
<linearGradient id="paint0_linear_0_137" x1="30.5" y1="0.228516" x2="30.5" y2="60.2285" gradientUnits="userSpaceOnUse">
<stop stop-color="#17C9FB"/>
<stop offset="1" stop-color="#1A74E8"/>
</linearGradient>
<clipPath id="clip0_0_137">
<rect width="60" height="60" fill="white" transform="translate(0.5 0.228516)"/>
</clipPath>
</defs>
</svg>
