<svg width="61" height="72" viewBox="0 0 61 72" fill="none" xmlns="http://www.w3.org/2000/svg">
<g clip-path="url(#clip0_0_150)">
<path d="M18.8724 1.15616C18.529 1.15837 18.1915 1.24609 17.8904 1.4114C16.9018 1.95936 16.5392 3.22944 17.087 4.21733L19.3189 8.24765C13.9414 11.5746 10.3782 17.2577 10.3782 23.7441V24.9492C9.34531 23.7609 7.82727 23.0107 6.13109 23.0107C3.02328 23.0107 0.5 25.534 0.5 28.6416V45.9874C0.5 49.0948 3.02352 51.6183 6.13109 51.6183C7.82727 51.6183 9.34531 50.8678 10.378 49.6795V52.1093C10.378 55.3852 13.0585 58.0655 16.3344 58.0655H17.8456V65.7818C17.8456 68.8896 20.3691 71.4129 23.4767 71.4129C26.5843 71.4129 29.1076 68.8894 29.1076 65.7818V58.0655H31.7223V65.7818C31.7223 68.8896 34.2458 71.4129 37.3534 71.4129C40.4609 71.4129 42.9842 68.8894 42.9842 65.7818V58.0655H44.4957C47.7713 58.0655 50.4519 55.3852 50.4519 52.1093V49.6795C51.4845 50.8678 53.0028 51.6183 54.699 51.6183C57.8066 51.6183 60.3298 49.0948 60.3298 45.9874V28.6416C60.3298 25.534 57.8066 23.0107 54.699 23.0107C53.0028 23.0107 51.4845 23.7609 50.4519 24.9492V23.948V23.8905C50.4523 23.8296 50.4519 23.7809 50.4519 23.7441C50.4519 17.2589 46.8805 11.5814 41.5048 8.25421L43.7431 4.21733C44.2906 3.22944 43.9283 1.95936 42.9397 1.4114C42.6386 1.24609 42.3011 1.15837 41.9577 1.15616C41.2276 1.14913 40.5111 1.53397 40.1338 2.21483L37.7933 6.44296C35.5048 5.59851 33.0148 5.13562 30.4152 5.13562C27.8178 5.13562 25.3231 5.59358 23.0366 6.4364L20.6963 2.21483C20.3188 1.53397 19.6025 1.1496 18.8724 1.15616Z" fill="white"/>
<path d="M6.13118 24.4774C3.81228 24.4774 1.96704 26.3227 1.96704 28.6416V45.9874C1.96704 48.3063 3.81228 50.1516 6.13118 50.1516C8.45009 50.1516 10.2956 48.3063 10.2956 45.9874V28.6416C10.2956 26.3227 8.45009 24.4774 6.13118 24.4774ZM54.6993 24.4774C52.3802 24.4774 50.5349 26.3227 50.5349 28.6416V45.9874C50.5349 48.3063 52.3802 50.1516 54.6993 50.1516C57.0182 50.1516 58.8634 48.3063 58.8634 45.9874V28.6416C58.8634 26.3227 57.0182 24.4774 54.6993 24.4774Z" fill="#A4C639"/>
<path d="M23.477 44.2718C21.1581 44.2718 19.3126 46.117 19.3126 48.4362V65.7818C19.3126 68.1007 21.1581 69.9459 23.477 69.9459C25.7959 69.9459 27.6411 68.1007 27.6411 65.7818V48.4362C27.6411 46.117 25.7959 44.2718 23.477 44.2718ZM37.3536 44.2718C35.0345 44.2718 33.1893 46.117 33.1893 48.4362V65.7818C33.1893 68.1007 35.0345 69.9459 37.3536 69.9459C39.6725 69.9459 41.5178 68.1007 41.5178 65.7818V48.4362C41.5178 46.117 39.6725 44.2718 37.3536 44.2718Z" fill="#A4C639"/>
<path d="M18.885 2.62313C18.7865 2.62432 18.69 2.65061 18.6045 2.69954C18.3075 2.86407 18.21 3.20532 18.3748 3.50297L21.3085 8.80242C15.6647 11.7391 11.8524 17.3198 11.8449 23.7248H48.9851C48.9774 17.3198 45.1653 11.7389 39.5215 8.80242L42.4549 3.50321C42.6199 3.20555 42.5222 2.86407 42.2253 2.69954C42.1398 2.65058 42.0432 2.62428 41.9447 2.62313C41.7338 2.62079 41.5343 2.72625 41.4218 2.92922L38.4499 8.28586C36.019 7.20774 33.2923 6.60235 30.4149 6.60235C27.5374 6.60235 24.811 7.2075 22.3798 8.28586L19.4079 2.92922C19.3572 2.83519 19.2817 2.75691 19.1895 2.70292C19.0973 2.64894 18.9921 2.62134 18.8853 2.62313H18.885ZM11.8449 25.1916V52.1095C11.8436 52.6994 11.9589 53.2838 12.184 53.829C12.4092 54.3743 12.7398 54.8697 13.157 55.2868C13.5741 55.7039 14.0695 56.0345 14.6148 56.2597C15.16 56.4848 15.7444 56.6 16.3343 56.5987H44.4956C45.0856 56.6 45.6699 56.4848 46.2152 56.2596C46.7605 56.0345 47.2559 55.7038 47.6731 55.2867C48.0902 54.8696 48.4208 54.3741 48.646 53.8289C48.8712 53.2836 48.9864 52.6992 48.9851 52.1093V25.1918H11.8449V25.1916Z" fill="#A4C639"/>
<path d="M21.844 13.8276C20.9963 13.8276 20.2943 14.5294 20.2943 15.3771C20.2943 16.2251 20.9963 16.9268 21.844 16.9268C22.692 16.9268 23.3937 16.2251 23.3937 15.3771C23.3937 14.5294 22.692 13.8276 21.844 13.8276ZM38.9857 13.8276C38.1377 13.8276 37.436 14.5294 37.436 15.3771C37.436 16.2251 38.1377 16.9268 38.9857 16.9268C39.8334 16.9268 40.5354 16.2251 40.5354 15.3771C40.5354 14.5294 39.8334 13.8276 38.9857 13.8276Z" fill="white"/>
</g>
<defs>
<clipPath id="clip0_0_150">
<rect width="60" height="70.5469" fill="white" transform="translate(0.5 0.955078)"/>
</clipPath>
</defs>
</svg>
